# AST/ASF file generated using VICON BodyLanguage
# -----------------------------------------------
:version 1.10
:name VICON
:units
  mass 1.0
  length 0.45
  angle deg
:documentation
   .ast/.asf automatically generated from VICON data using
   VICON BodyBuilder and BodyLanguage model FoxedUp or BRILLIANT.MOD
:root
   order TX TY TZ RX RY RZ
   axis XYZ
   position 0 0 0  
   orientation 0 0 0 
:bonedata
  begin
     id 1 
     name lhipjoint
     direction 0.734343 -0.627749 0.258209 
     length 2.5437 
     axis 0 0 0  XYZ
  end
  begin
     id 2 
     name lfemur
     direction 0.34202 -0.939693 0  
     length 6.7391  
     axis 0 0 20  XYZ
    dof rx ry rz
    limits (-160.0 20.0)
           (-70.0 70.0)
           (-60.0 70.0)
  end
  begin
     id 3 
     name ltibia
     direction 0.34202 -0.939693 0   
     length 7.21536   
     axis 0 0 20   XYZ
    dof rx
    limits (-10.0 170.0)
  end
  begin
     id 4 
     name lfoot
     direction 0.0489572 -0.134509 0.989702   
     length 1.61313   
     axis -90 7.62852e-016 20   XYZ
    dof rx rz
    limits (-45.0 90.0)
           (-70.0 20.0)
  end
  begin
     id 5 
     name ltoes
     direction 1.53451e-011 -4.21692e-011 1   
     length 0.823104   
     axis -90 7.62852e-016 20   XYZ
    dof rx
    limits (-90.0 20.0)
  end
  begin
     id 6 
     name rhipjoint
     direction -0.746398 -0.615468 0.253157   
     length 2.59446  
     axis 0 0 0  XYZ 
  end
  begin
     id 7 
     name rfemur
     direction -0.34202 -0.939693 0   
     length 6.7075   
     axis 0 0 -20   XYZ
    dof rx ry rz
    limits (-160.0 20.0)
           (-70.0 70.0)
           (-70.0 60.0)
  end
  begin
     id 8 
     name rtibia
     direction -0.34202 -0.939693 0   
     length 7.27262   
     axis 0 0 -20   XYZ
    dof rx
    limits (-10.0 170.0)
 end
 begin
     id 9 
     name rfoot
     direction -0.0455203 -0.125066 0.991104   
     length 1.91095  
     axis -90 -7.62852e-016 -20   XYZ
    dof rx rz
    limits (-45.0 90.0)
           (-20.0 70.0)
  end
  begin
     id 10 
     name rtoes
     direction -1.53601e-011 -4.21913e-011 1   
     length 0.969037   
     axis -90 -7.62852e-016 -20   XYZ
    dof rx
    limits (-90.0 20.0)
  end
  begin
     id 11 
     name lowerback
     direction 0.0181546 0.999122 -0.0377542   
     length 1.99916   
     axis 0 0 0   XYZ
    dof rx ry rz
    limits (-20.0 45.0)
           (-30.0 30.0)
           (-30.0 30.0)
  end
  begin
     id 12 
     name upperback
     direction 0.0203486 0.99589 0.0882534   
     length 1.951   
     axis 0 0 0   XYZ
    dof rx ry rz
    limits (-20.0 45.0)
           (-30.0 30.0)
           (-30.0 30.0)
  end
  begin
     id 13 
     name thorax
     direction 0.0131685 0.994241 0.106355   
     length 1.97461   
     axis 0 0 0   XYZ
    dof rx ry rz
    limits (-20.0 45.0)
           (-30.0 30.0)
           (-30.0 30.0)
  end
  begin
     id 14 
     name lowerneck
     direction -0.0281395 0.999325 0.023617   
     length 1.7959   
     axis 0 0 0   XYZ
    dof rx ry rz
    limits (-20.0 45.0)
           (-30.0 30.0)
           (-30.0 30.0)
  end
  begin
     id 15 
     name upperneck
     direction 0.0288721 0.991984 -0.123019   
     length 1.79917   
     axis 0 0 0   XYZ
    dof rx ry rz
    limits (-20.0 45.0)
           (-30.0 30.0)
           (-30.0 30.0)
  end
  begin
     id 16
     name head
     direction 0.0133797 0.998944 -0.0439492  
     length 1.80902  
     axis 0 0 0   XYZ
    dof rx ry rz
    limits (-20.0 45.0)
           (-30.0 30.0)
           (-30.0 30.0)
  end
  begin
     id 17 
     name lclavicle
     direction 0.919195 0.377107 0.113449  
     length 3.17815  
     axis 0 0 0   XYZ
    dof ry rz
    limits (-20.0 10.0)
           (0.0 20.0)
  end
  begin
     id 18 
     name lhumerus
     direction 1 -4.48959e-011 2.13129e-027   
     length 4.84137   
     axis 180 -30 -90   XYZ
    dof rx ry rz
    limits (-60.0 90.0)
           (-90.0 90.0)
           (-90.0 90.0)
  end
  begin
     id 19
     name lradius
     direction 1 -4.48957e-011 -6.30627e-028   
     length 3.2452   
     axis 180 -30 -90   XYZ
    dof rx
    limits (-10.0 170.0)
  end
  begin
     id 20
     name lwrist
     direction 1 -4.4901e-011 9.13299e-027   
     length 1.6226   
     axis -6.84618e-015 90 90   XYZ
    dof ry
    limits (-180.0 0.0)
 end
  begin
     id 21 
     name lhand
     direction 1 -4.48816e-011 1.82293e-026   
     length 0.521221   
     axis -1.16502e-014 90 90   XYZ
    dof rx rz
    limits (-90.0 90.0)
           (-45.0 45.0)
  end
  begin
     id 22 
     name lfingers
     direction 1 -4.49108e-011 3.65687e-026   
     length 0.420221   
     axis -2.33008e-014 90 90   XYZ
    dof rx
    limits (0.0 90.0)
  end
  begin
     id 23
     name lthumb
     direction 0.707107 -6.34943e-011 0.707107   
     length 0.603356   
     axis -90 45 5.69224e-014   XYZ
    dof rx rz
    limits (-45.0 45.0)
           (-45.0 45.0)
  end
  begin
     id 24 
     name rclavicle
     direction -0.90847 0.38596 0.160368   
     length 3.12973  
     axis 0 0 0   XYZ 
    dof ry rz
    limits (-10.0 20.0)
           (-20.0 0.0)
  end
  begin
     id 25 
     name rhumerus
     direction -1 -4.48974e-011 4.47268e-028  
     length 4.72284   
     axis 180 30 90   XYZ
    dof rx ry rz
    limits (-90.0 60.0)
           (-90.0 90.0)
           (-90.0 90.0)
  end
  begin
     id 26 
     name rradius
     direction -1 -4.48969e-011 3.43203e-027   
     length 3.23459   
     axis 180 30 90   XYZ
    dof rx
    limits (-10.0 170.0)
  end
  begin
     id 27 
     name rwrist
     direction -1 -4.48969e-011 9.12911e-027   
     length 1.6173   
     axis -6.84618e-015 -90 -90   XYZ
    dof ry
    limits (-180.0 0.0)
  end
  begin
     id 28
     name rhand
     direction -1 -4.49194e-011 1.83006e-026   
     length 0.307416   
     axis -1.16502e-014 -90 -90   XYZ
    dof rx rz
    limits (-90.0 90.0)
           (-45.0 45.0)
  end
  begin
     id 29
     name rfingers
     direction -1 -4.48423e-011 3.63103e-026   
     length 0.247847   
     axis -2.33008e-014 -90 -90   XYZ
    dof rx
    limits (0.0 90.0)
  end
  begin
     id 30
     name rthumb
     direction -0.707107 -6.34802e-011 0.707107   
     length 0.35586   
     axis -90 -45 -5.69224e-014   XYZ
    dof rx rz
    limits (-45.0 45.0)
           (-45.0 45.0)
  end
:hierarchy
  begin
    root lhipjoint rhipjoint lowerback
    lhipjoint lfemur
    lfemur ltibia
    ltibia lfoot
    lfoot ltoes
    rhipjoint rfemur
    rfemur rtibia
    rtibia rfoot
    rfoot rtoes
    lowerback upperback
    upperback thorax
    thorax lowerneck lclavicle rclavicle
    lowerneck upperneck
    upperneck head
    lclavicle lhumerus
    lhumerus lradius
    lradius lwrist
    lwrist lhand lthumb
    lhand lfingers
    rclavicle rhumerus
    rhumerus rradius
    rradius rwrist
    rwrist rhand rthumb
    rhand rfingers
  end

#!OML:ASF H:\Terrain\Patient Classification 1\Animal1\Tuesday\Animal1.ASF
:FULLY-SPECIFIED
:DEGREES
67
root 20.6911 14.0785 -11.5639 20.2742 -23.4627 4.69864
lowerback 23.1352 -1.25801 1.4911
upperback -9.28873 -1.41659 -0.674893
thorax -24.1905 -0.893116 -1.03098
lowerneck -11.0478 1.65043 -5.32458
upperneck 17.0195 2.15886 5.71861
head 6.88014 1.18172 2.9274
rclavicle -3.05134e-014 1.07344e-014
rhumerus -16.3507 -39.1864 26.4046
rradius 47.6455
rwrist 4.54121
rhand 74.5735 -13.4012
rfingers 7.12502
rthumb 71.3771 67.3507
lclavicle -3.05134e-014 1.07344e-014
lhumerus -28.3647 26.9284 -13.2317
lradius 67.7288
lwrist -48.6045
lhand 59.0899 70.9473
lfingers 7.12502
lthumb 74.3778 41.7145
rfemur -97.9453 -18.6982 16.8241
rtibia 89.6444
rfoot 43.1359 14.1319
rtoes 7.24329
lfemur -57.7338 -10.7829 -29.5111
ltibia 73.6596
lfoot -26.6228 21.9936
ltoes -11.4276
68
root 20.6939 14.0577 -11.571 20.4769 -23.3695 4.87243
lowerback 23.2612 -1.26693 1.35129
upperback -9.35176 -1.45088 -0.561812
thorax -24.3529 -0.871146 -0.800565
lowerneck -11.1417 1.64531 -5.71623
upperneck 16.8422 2.20342 5.89794
head 6.82934 1.19675 3.05234
rclavicle -1.97791e-014 -5.1684e-015
rhumerus -16.1824 -39.1315 26.4143
rradius 47.7093
rwrist 4.248
rhand 74.0953 -13.7169
rfingers 7.12502
rthumb 71.6525 65.8656
lclavicle -1.97791e-014 -5.1684e-015
lhumerus -28.4024 26.6936 -12.9599
lradius 67.7413
lwrist -48.5303
lhand 58.6108 71.2414
lfingers 7.12502
lthumb 74.241 43.6431
rfemur -98.4001 -18.9208 16.7277
rtibia 89.6972
rfoot 43.3043 14.1133
rtoes 7.42374
lfemur -58.1631 -10.9464 -29.6091
ltibia 73.842
lfoot -26.6113 22.0205
ltoes -11.5253
69
root 20.6952 14.0303 -11.5774 20.9038 -23.3539 4.94296
lowerback 23.1841 -1.25049 1.28492
upperback -9.43401 -1.43323 -0.472945
thorax -24.4149 -0.843743 -0.666009
lowerneck -11.2683 1.65364 -5.7365
upperneck 16.6603 2.26017 5.74038
head 6.79223 1.2125 3.00744
rclavicle 1.47101e-014 -1.98785e-015
rhumerus -16.0978 -39.1623 26.3214
rradius 47.7446
rwrist 4.1971
rhand 73.3031 -15.1413
rfingers 7.12502
rthumb 72.0907 62.4252
lclavicle 1.47101e-014 -1.98785e-015
lhumerus -28.5076 26.4484 -12.8093
lradius 67.8091
lwrist -48.3125
lhand 58.3766 71.2586
lfingers 7.12502
lthumb 74.1695 44.4485
rfemur -99.0799 -19.0153 16.817
rtibia 89.693
rfoot 43.3612 15.1432
rtoes 6.69319
lfemur -58.8823 -11.0043 -29.5899
ltibia 74.1026
lfoot -26.9624 21.4971
ltoes -9.41126
70
root 20.6967 14.0179 -11.5815 21.3144 -23.3887 4.59237
lowerback 23.277 -1.23801 1.52017
upperback -9.43234 -1.29999 -0.331043
thorax -24.4691 -0.810642 -0.688958
lowerneck -11.3168 1.71091 -5.56703
upperneck 16.375 2.35371 5.54091
head 6.70918 1.25412 2.91709
rclavicle 2.08724e-014 2.46493e-014
rhumerus -16.0698 -39.2541 26.1391
rradius 47.7028
rwrist 4.28912
rhand 73.45 -15.2689
rfingers 7.12502
rthumb 72.0112 62.6789
lclavicle 2.08724e-014 2.46493e-014
lhumerus -28.6541 26.3494 -12.7554
lradius 67.7882
lwrist -48.2867
lhand 58.2742 71.2337
lfingers 7.12502
lthumb 74.1372 44.766
rfemur -99.4042 -18.8568 17.232
rtibia 89.5834
rfoot 43.567 15.571
rtoes 7.88983
lfemur -59.4044 -10.7623 -29.2686
ltibia 74.3649
lfoot -27.0619 21.4805
ltoes -9.69944
71
root 20.7004 14.0156 -11.5841 21.477 -23.4486 4.23178
lowerback 23.592 -1.24819 1.75624
upperback -9.35693 -1.18772 -0.171537
thorax -24.5593 -0.782376 -0.679779
lowerneck -11.4149 1.77372 -5.61719
upperneck 16.1175 2.46726 5.50998
head 6.63711 1.30672 2.92105
rclavicle -1.00386e-014 5.1684e-015
rhumerus -15.7828 -39.3224 25.8211
rradius 47.4781
rwrist 4.26005
rhand 72.4719 -15.2123
rfingers 7.12502
rthumb 72.5245 60.1312
lclavicle -1.00386e-014 5.1684e-015
lhumerus -28.8408 26.1836 -12.7567
lradius 67.5989
lwrist -48.3061
lhand 58.3384 71.1477
lfingers 7.12502
lthumb 74.1575 44.4657
rfemur -99.3747 -18.6619 17.5216
rtibia 89.4684
rfoot 43.7245 15.2272
rtoes 9.03546
lfemur -59.5466 -10.5176 -28.9932
ltibia 74.5915
lfoot -27.473 21.4799
ltoes -9.25529
72
root 20.7042 14.0023 -11.5928 21.7204 -23.4403 4.11403
lowerback 23.7348 -1.27119 1.84586
upperback -9.31181 -1.1654 -0.0881809
thorax -24.5843 -0.776531 -0.640227
lowerneck -11.6807 1.80024 -5.69423
upperneck 15.9579 2.5279 5.56413
head 6.62696 1.34057 2.95773
rclavicle 5.1684e-015 -2.06736e-014
rhumerus -15.4021 -39.369 25.3688
rradius 47.1884
rwrist 4.23282
rhand 70.8481 -16.3228
rfingers 7.12502
rthumb 73.2878 54.3575
lclavicle 5.1684e-015 -2.06736e-014
lhumerus -28.903 26.0391 -12.6935
lradius 67.3203
lwrist -48.3738
lhand 58.243 70.996
lfingers 7.12502
lthumb 74.1273 44.6325
rfemur -99.6778 -18.6236 17.6899
rtibia 89.4467
rfoot 44.0525 14.4377
rtoes 10.8173
lfemur -59.8992 -10.5008 -28.8499
ltibia 74.8354
lfoot -28.281 20.9536
ltoes -6.09897
73
root 20.705 13.9797 -11.6091 22.2478 -23.3731 3.90532
lowerback 23.6942 -1.29175 1.99281
upperback -9.32653 -1.12447 -0.00566057
thorax -24.5792 -0.773959 -0.644749
lowerneck -12.0341 1.83111 -5.46033
upperneck 15.8078 2.57557 5.41031
head 6.64388 1.36979 2.8766
rclavicle 2.25621e-014 -8.74653e-015
rhumerus -15.2467 -39.4864 24.9593
rradius 46.9198
rwrist 4.46229
rhand 71.4219 -15.7893
rfingers 7.12502
rthumb 73.0315 56.5869
lclavicle 2.25621e-014 -8.74653e-015
lhumerus -28.8486 26.0682 -12.5509
lradius 67.0441
lwrist -48.5924
lhand 57.9815 71.2863
lfingers 7.12502
lthumb 74.0418 45.7895
rfemur -100.344 -18.528 18.0712
rtibia 89.4725
rfoot 44.2215 14.056
rtoes 11.7269
lfemur -60.679 -10.4539 -28.5685
ltibia 75.135
lfoot -28.5418 20.9828
ltoes -5.81606
74
root 20.7047 13.9585 -11.6168 22.4747 -23.5614 3.95292
lowerback 23.8299 -1.24549 1.81904
upperback -9.32674 -1.11049 0.0268618
thorax -24.6603 -0.736207 -0.511256
lowerneck -12.2144 1.91158 -5.27845
upperneck 15.6163 2.69514 5.23459
head 6.61294 1.42685 2.79924
rclavicle -3.0911e-014 3.10104e-014
rhumerus -15.1241 -39.5565 24.5936
rradius 46.6992
rwrist 4.80497
rhand 72.8951 -14.2435
rfingers 7.12502
rthumb 72.3071 62.2457
lclavicle -3.0911e-014 3.10104e-014
lhumerus -28.8714 26.1587 -12.4467
lradius 66.7781
lwrist -48.8551
lhand 58.115 71.3804
lfingers 7.12502
lthumb 74.0859 45.4425
rfemur -100.846 -18.387 18.1153
rtibia 89.5159
rfoot 43.9832 15.1351
rtoes 9.85501
lfemur -61.1323 -10.2738 -28.6893
ltibia 75.4098
lfoot -28.689 21.1876
ltoes -6.61373
75
root 20.7043 13.9446 -11.621 22.4024 -23.8326 4.24794
lowerback 24.0805 -1.16507 1.42585
upperback -9.25667 -1.14313 -0.0210492
thorax -24.7114 -0.690176 -0.326479
lowerneck -12.393 1.967 -5.34571
upperneck 15.5218 2.77084 5.3771
head 6.60582 1.47437 2.86417
rclavicle -2.14687e-014 -4.77083e-014
rhumerus -14.8958 -39.6547 24.125
rradius 46.489
rwrist 5.06626
rhand 73.061 -14.2101
rfingers 7.12502
rthumb 72.2199 62.7204
lclavicle -2.14687e-014 -4.77083e-014
lhumerus -28.8659 26.3814 -12.3614
lradius 66.5116
lwrist -49.0885
lhand 58.3292 70.8018
lfingers 7.12502
lthumb 74.1546 44.1507
rfemur -101.082 -18.3659 17.893
rtibia 89.5336
rfoot 43.9373 16.0679
rtoes 9.45612
lfemur -61.2394 -10.1984 -29.0465
ltibia 75.6226
lfoot -29.0351 20.9228
ltoes -5.33702
76
root 20.7043 13.9371 -11.6375 22.6266 -23.8868 4.10745
lowerback 24.2522 -1.14438 1.44564
upperback -9.192 -1.09731 0.00456309
thorax -24.7257 -0.670955 -0.325947
lowerneck -12.6043 1.96453 -5.24622
upperneck 15.3719 2.75485 5.42132
head 6.59632 1.47984 2.86151
rclavicle 4.92986e-014 -4.13472e-014
rhumerus -14.725 -39.6289 23.6395
rradius 46.1453
rwrist 5.03574
rhand 71.9475 -14.769
rfingers 7.12502
rthumb 72.7837 59.1149
lclavicle 4.92986e-014 -4.13472e-014
lhumerus -28.8398 26.6075 -12.2518
lradius 66.362
lwrist -49.1792
lhand 57.9366 70.8666
lfingers 7.12502
lthumb 74.0268 45.5176
rfemur -101.307 -18.2303 18.1162
rtibia 89.4784
rfoot 44.1194 15.8826
rtoes 10.6632
lfemur -61.6258 -10.2786 -28.7861
ltibia 75.8564
lfoot -29.0751 20.9207
ltoes -4.70432
77
root 20.7063 13.9273 -11.6555 23.0047 -23.9044 3.62511
lowerback 24.4877 -1.1576 1.74979
upperback -9.1542 -0.971014 0.133063
thorax -24.8203 -0.653336 -0.400189
lowerneck -12.6745 1.98223 -5.03103
upperneck 15.0348 2.7822 5.22544
head 6.50621 1.49224 2.75939
rclavicle -6.4605e-015 -1.82882e-014
rhumerus -14.4834 -39.3634 23.1759
rradius 45.6455
rwrist 5.08221
rhand 71.2914 -14.6842
rfingers 7.12502
rthumb 73.0911 57.311
lclavicle -6.4605e-015 -1.82882e-014
lhumerus -28.8995 26.4874 -12.1736
lradius 66.2133
lwrist -48.942
lhand 57.3816 71.5104
lfingers 7.12502
lthumb 73.8319 47.9654
rfemur -101.494 -17.9021 18.6128
rtibia 89.3831
rfoot 44.4304 14.7765
rtoes 12.0697
lfemur -62.1321 -10.3588 -28.1471
ltibia 76.143
lfoot -29.0439 21.0683
ltoes -4.39357
78
root 20.7099 13.9118 -11.6645 23.2905 -23.9476 3.27094
lowerback 24.6856 -1.16517 1.98835
upperback -9.09099 -0.865635 0.236689
thorax -24.8531 -0.63638 -0.458339
lowerneck -12.7065 2.02862 -4.91422
upperneck 14.6231 2.85172 5.12244
head 6.38049 1.52737 2.70503
rclavicle 4.57205e-015 5.36719e-014
rhumerus -14.1342 -39.2939 22.6403
rradius 45.0396
rwrist 5.58968
rhand 71.6553 -14.156
rfingers 7.12502
rthumb 72.923 58.8953
lclavicle 4.57205e-015 5.36719e-014
lhumerus -28.8708 26.4916 -12.0701
lradius 65.929
lwrist -48.825
lhand 57.1337 71.3721
lfingers 7.12502
lthumb 73.7396 48.6186
rfemur -101.702 -17.6822 19.0205
rtibia 89.3428
rfoot 44.8327 13.2306
rtoes 14.1007
lfemur -62.5358 -10.4287 -27.7038
ltibia 76.4409
lfoot -29.134 21.1261
ltoes -3.88574
79
root 20.7108 13.8898 -11.6748 23.4716 -24.0367 3.33512
lowerback 24.8268 -1.15778 1.85349
upperback -9.04252 -0.900437 0.237166
thorax -24.8704 -0.6273 -0.36394
lowerneck -12.7086 2.05948 -4.92619
upperneck 14.2162 2.88702 5.24189
head 6.24731 1.55684 2.73995
rclavicle -3.26007e-014 7.95139e-016
rhumerus -13.7135 -39.1863 21.9669
rradius 44.4736
rwrist 6.04486
rhand 71.1641 -14.6292
rfingers 7.12502
rthumb 73.1486 56.9915
lclavicle -3.26007e-014 7.95139e-016
lhumerus -28.8566 26.763 -11.924
lradius 65.7524
lwrist -49.091
lhand 57.1541 71.0245
lfingers 7.12502
lthumb 73.7473 48.2062
rfemur -102.179 -17.652 19.1652
rtibia 89.4199
rfoot 44.7382 13.7333
rtoes 12.9182
lfemur -62.9547 -10.4841 -27.7
ltibia 76.7152
lfoot -29.3295 21.0589
ltoes -3.44924
80
root 20.7101 13.8705 -11.6927 23.6003 -24.0684 3.5064
lowerback 25.0463 -1.19166 1.67132
upperback -9.03773 -1.01723 0.201948
thorax -25.002 -0.647394 -0.245864
lowerneck -12.6327 2.04393 -5.05138
upperneck 13.8833 2.85677 5.48433
head 6.12422 1.55683 2.82724
rclavicle 2.70347e-014 -7.15625e-015
rhumerus -13.2826 -38.6541 21.2422
rradius 44.017
rwrist 6.34761
rhand 69.7322 -15.4931
rfingers 7.12502
rthumb 73.7411 51.7406
lclavicle 2.70347e-014 -7.15625e-015
lhumerus -28.8855 26.7692 -11.7872
lradius 65.6926
lwrist -49.2878
lhand 57.361 71.1118
lfingers 7.12502
lthumb 73.8244 47.6329
rfemur -102.666 -17.7073 19.2791
rtibia 89.5436
rfoot 44.4724 14.3914
rtoes 11.8421
lfemur -63.3827 -10.6074 -27.7379
ltibia 76.9715
lfoot -29.6089 20.8394
ltoes -2.46102
